<svg width="333" height="18" viewBox="0 0 333 18" fill="none" xmlns="http://www.w3.org/2000/svg">
<path d="M11.4375 11.5859L15.75 1.10938H22.2188V1.54297H21.7031C21.2344 1.54297 20.8594 1.625 20.5781 1.78906C20.3828 1.89844 20.2266 2.08203 20.1094 2.33984C20.0234 2.52734 19.9805 3.01562 19.9805 3.80469V14.2812C19.9805 15.0938 20.0234 15.6016 20.1094 15.8047C20.1953 16.0078 20.3711 16.1875 20.6367 16.3438C20.9023 16.4922 21.2578 16.5664 21.7031 16.5664H22.2188V17H13.9219V16.5664H14.4375C14.9062 16.5664 15.2812 16.4844 15.5625 16.3203C15.7578 16.2109 15.9141 16.0234 16.0312 15.7578C16.1172 15.5703 16.1602 15.0781 16.1602 14.2812V2.50391L10.0664 17H9.78516L3.59766 2.60938V13.8008C3.59766 14.582 3.61719 15.0625 3.65625 15.2422C3.75781 15.6328 3.97656 15.9531 4.3125 16.2031C4.65625 16.4453 5.19141 16.5664 5.91797 16.5664V17H0.480469V16.5664H0.644531C0.996094 16.5742 1.32422 16.5195 1.62891 16.4023C1.93359 16.2773 2.16406 16.1133 2.32031 15.9102C2.47656 15.707 2.59766 15.4219 2.68359 15.0547C2.69922 14.9688 2.70703 14.5703 2.70703 13.8594V3.80469C2.70703 3 2.66406 2.5 2.57812 2.30469C2.49219 2.10156 2.31641 1.92578 2.05078 1.77734C1.78516 1.62109 1.42969 1.54297 0.984375 1.54297H0.480469V1.10938H6.97266L11.4375 11.5859ZM28.6406 5.71484C29.5938 5.71484 30.4805 5.96094 31.3008 6.45312C32.1211 6.94531 32.7422 7.64453 33.1641 8.55078C33.5938 9.45703 33.8086 10.4492 33.8086 11.5273C33.8086 13.082 33.4141 14.3828 32.625 15.4297C31.6719 16.6953 30.3555 17.3281 28.6758 17.3281C27.0273 17.3281 25.7578 16.75 24.8672 15.5938C23.9766 14.4375 23.5312 13.0977 23.5312 11.5742C23.5312 10.0039 23.9844 8.63672 24.8906 7.47266C25.8047 6.30078 27.0547 5.71484 28.6406 5.71484ZM28.6875 6.54688C28.2891 6.54688 27.9453 6.69922 27.6562 7.00391C27.375 7.30078 27.1875 7.89453 27.0938 8.78516C27.0078 9.66797 26.9648 10.8984 26.9648 12.4766C26.9648 13.3125 27.0195 14.0938 27.1289 14.8203C27.2148 15.375 27.3984 15.7969 27.6797 16.0859C27.9609 16.375 28.2812 16.5195 28.6406 16.5195C28.9922 16.5195 29.2852 16.4219 29.5195 16.2266C29.8242 15.9609 30.0273 15.5898 30.1289 15.1133C30.2852 14.3711 30.3633 12.8711 30.3633 10.6133C30.3633 9.28516 30.2891 8.375 30.1406 7.88281C29.9922 7.38281 29.7734 7.01953 29.4844 6.79297C29.2812 6.62891 29.0156 6.54688 28.6875 6.54688ZM39.9492 1.10938V7.44922C40.5508 6.81641 41.1016 6.37109 41.6016 6.11328C42.1016 5.84766 42.6211 5.71484 43.1602 5.71484C43.8477 5.71484 44.4336 5.91016 44.918 6.30078C45.4102 6.69141 45.7344 7.15234 45.8906 7.68359C46.0547 8.20703 46.1367 9.09375 46.1367 10.3438V14.6211C46.1367 15.457 46.2148 15.9805 46.3711 16.1914C46.5273 16.3945 46.8438 16.5234 47.3203 16.5781V17H41.7656V16.5781C42.1562 16.5234 42.4492 16.3672 42.6445 16.1094C42.7852 15.9062 42.8555 15.4102 42.8555 14.6211V9.73438C42.8555 8.82812 42.8203 8.26172 42.75 8.03516C42.6797 7.80078 42.5586 7.62109 42.3867 7.49609C42.2227 7.36328 42.0352 7.29688 41.8242 7.29688C41.5117 7.29688 41.207 7.40625 40.9102 7.625C40.6133 7.83594 40.293 8.21094 39.9492 8.75V14.6211C39.9492 15.4023 40.0078 15.8906 40.125 16.0859C40.2734 16.3516 40.5781 16.5156 41.0391 16.5781V17H35.4844V16.5781C35.9453 16.5312 36.2734 16.3828 36.4688 16.1328C36.6016 15.9609 36.668 15.457 36.668 14.6211V3.48828C36.668 2.66016 36.5898 2.14453 36.4336 1.94141C36.2852 1.73828 35.9688 1.60547 35.4844 1.54297V1.10938H39.9492ZM54.8789 15.3828C53.543 16.5625 52.3438 17.1523 51.2812 17.1523C50.6562 17.1523 50.1367 16.9492 49.7227 16.543C49.3086 16.1289 49.1016 15.6133 49.1016 14.9961C49.1016 14.1602 49.4609 13.4102 50.1797 12.7461C50.8984 12.0742 52.4648 11.1836 54.8789 10.0742V8.97266C54.8789 8.14453 54.832 7.625 54.7383 7.41406C54.6523 7.19531 54.4844 7.00781 54.2344 6.85156C53.9844 6.6875 53.7031 6.60547 53.3906 6.60547C52.8828 6.60547 52.4648 6.71875 52.1367 6.94531C51.9336 7.08594 51.832 7.25 51.832 7.4375C51.832 7.60156 51.9414 7.80469 52.1602 8.04688C52.457 8.38281 52.6055 8.70703 52.6055 9.01953C52.6055 9.40234 52.4609 9.73047 52.1719 10.0039C51.8906 10.2695 51.5195 10.4023 51.0586 10.4023C50.5664 10.4023 50.1523 10.2539 49.8164 9.95703C49.4883 9.66016 49.3242 9.3125 49.3242 8.91406C49.3242 8.35156 49.5469 7.81641 49.9922 7.30859C50.4375 6.79297 51.0586 6.39844 51.8555 6.125C52.6523 5.85156 53.4805 5.71484 54.3398 5.71484C55.3789 5.71484 56.1992 5.9375 56.8008 6.38281C57.4102 6.82031 57.8047 7.29688 57.9844 7.8125C58.0938 8.14062 58.1484 8.89453 58.1484 10.0742V14.3281C58.1484 14.8281 58.168 15.1445 58.207 15.2773C58.2461 15.4023 58.3047 15.4961 58.3828 15.5586C58.4609 15.6211 58.5508 15.6523 58.6523 15.6523C58.8555 15.6523 59.0625 15.5078 59.2734 15.2188L59.625 15.5C59.2344 16.0781 58.8281 16.5 58.4062 16.7656C57.9922 17.0234 57.5195 17.1523 56.9883 17.1523C56.3633 17.1523 55.875 17.0078 55.5234 16.7188C55.1719 16.4219 54.957 15.9766 54.8789 15.3828ZM54.8789 14.5273V10.8594C53.9336 11.4141 53.2305 12.0078 52.7695 12.6406C52.4648 13.0625 52.3125 13.4883 52.3125 13.918C52.3125 14.2773 52.4414 14.5938 52.6992 14.8672C52.8945 15.0781 53.168 15.1836 53.5195 15.1836C53.9102 15.1836 54.3633 14.9648 54.8789 14.5273ZM65.3789 6.04297V7.48438C65.9805 6.82812 66.5352 6.37109 67.043 6.11328C67.5586 5.84766 68.1211 5.71484 68.7305 5.71484C69.4336 5.71484 70.0234 5.87891 70.5 6.20703C70.9766 6.53516 71.3438 7.03516 71.6016 7.70703C72.2266 7.00391 72.8242 6.49609 73.3945 6.18359C73.9727 5.87109 74.5742 5.71484 75.1992 5.71484C75.957 5.71484 76.5586 5.89062 77.0039 6.24219C77.457 6.58594 77.7695 7.02734 77.9414 7.56641C78.1211 8.09766 78.2109 8.94922 78.2109 10.1211V14.6094C78.2109 15.4531 78.2852 15.9766 78.4336 16.1797C78.5898 16.3828 78.9102 16.5156 79.3945 16.5781V17H73.7344V16.5781C74.1797 16.5391 74.5078 16.3672 74.7188 16.0625C74.8594 15.8516 74.9297 15.3672 74.9297 14.6094V9.89844C74.9297 8.92188 74.8906 8.30078 74.8125 8.03516C74.7344 7.76953 74.6094 7.57422 74.4375 7.44922C74.2734 7.31641 74.0781 7.25 73.8516 7.25C73.5156 7.25 73.1758 7.375 72.832 7.625C72.4883 7.86719 72.1406 8.23438 71.7891 8.72656V14.6094C71.7891 15.3984 71.8555 15.8945 71.9883 16.0977C72.168 16.3867 72.5117 16.5469 73.0195 16.5781V17H67.3477V16.5781C67.6523 16.5625 67.8906 16.4883 68.0625 16.3555C68.2422 16.2148 68.3594 16.0508 68.4141 15.8633C68.4766 15.668 68.5078 15.25 68.5078 14.6094V9.89844C68.5078 8.90625 68.4688 8.28516 68.3906 8.03516C68.3125 7.78516 68.1797 7.58984 67.9922 7.44922C67.8125 7.30859 67.6172 7.23828 67.4062 7.23828C67.0938 7.23828 66.8086 7.32031 66.5508 7.48438C66.1836 7.72656 65.793 8.14062 65.3789 8.72656V14.6094C65.3789 15.3828 65.4531 15.8945 65.6016 16.1445C65.7578 16.3867 66.0781 16.5312 66.5625 16.5781V17H60.9141V16.5781C61.375 16.5312 61.7031 16.3828 61.8984 16.1328C62.0312 15.9609 62.0977 15.4531 62.0977 14.6094V8.42188C62.0977 7.59375 62.0195 7.07812 61.8633 6.875C61.7148 6.67188 61.3984 6.53906 60.9141 6.47656V6.04297H65.3789ZM85.3711 6.04297V7.48438C85.9727 6.82812 86.5273 6.37109 87.0352 6.11328C87.5508 5.84766 88.1133 5.71484 88.7227 5.71484C89.4258 5.71484 90.0156 5.87891 90.4922 6.20703C90.9688 6.53516 91.3359 7.03516 91.5938 7.70703C92.2188 7.00391 92.8164 6.49609 93.3867 6.18359C93.9648 5.87109 94.5664 5.71484 95.1914 5.71484C95.9492 5.71484 96.5508 5.89062 96.9961 6.24219C97.4492 6.58594 97.7617 7.02734 97.9336 7.56641C98.1133 8.09766 98.2031 8.94922 98.2031 10.1211V14.6094C98.2031 15.4531 98.2773 15.9766 98.4258 16.1797C98.582 16.3828 98.9023 16.5156 99.3867 16.5781V17H93.7266V16.5781C94.1719 16.5391 94.5 16.3672 94.7109 16.0625C94.8516 15.8516 94.9219 15.3672 94.9219 14.6094V9.89844C94.9219 8.92188 94.8828 8.30078 94.8047 8.03516C94.7266 7.76953 94.6016 7.57422 94.4297 7.44922C94.2656 7.31641 94.0703 7.25 93.8438 7.25C93.5078 7.25 93.168 7.375 92.8242 7.625C92.4805 7.86719 92.1328 8.23438 91.7812 8.72656V14.6094C91.7812 15.3984 91.8477 15.8945 91.9805 16.0977C92.1602 16.3867 92.5039 16.5469 93.0117 16.5781V17H87.3398V16.5781C87.6445 16.5625 87.8828 16.4883 88.0547 16.3555C88.2344 16.2148 88.3516 16.0508 88.4062 15.8633C88.4688 15.668 88.5 15.25 88.5 14.6094V9.89844C88.5 8.90625 88.4609 8.28516 88.3828 8.03516C88.3047 7.78516 88.1719 7.58984 87.9844 7.44922C87.8047 7.30859 87.6094 7.23828 87.3984 7.23828C87.0859 7.23828 86.8008 7.32031 86.543 7.48438C86.1758 7.72656 85.7852 8.14062 85.3711 8.72656V14.6094C85.3711 15.3828 85.4453 15.8945 85.5938 16.1445C85.75 16.3867 86.0703 16.5312 86.5547 16.5781V17H80.9062V16.5781C81.3672 16.5312 81.6953 16.3828 81.8906 16.1328C82.0234 15.9609 82.0898 15.4531 82.0898 14.6094V8.42188C82.0898 7.59375 82.0117 7.07812 81.8555 6.875C81.707 6.67188 81.3906 6.53906 80.9062 6.47656V6.04297H85.3711ZM110.098 11.1289H104.086C104.156 12.582 104.543 13.7305 105.246 14.5742C105.785 15.2227 106.434 15.5469 107.191 15.5469C107.66 15.5469 108.086 15.418 108.469 15.1602C108.852 14.8945 109.262 14.4219 109.699 13.7422L110.098 14C109.504 15.2109 108.848 16.0703 108.129 16.5781C107.41 17.0781 106.578 17.3281 105.633 17.3281C104.008 17.3281 102.777 16.7031 101.941 15.4531C101.27 14.4453 100.934 13.1953 100.934 11.7031C100.934 9.875 101.426 8.42188 102.41 7.34375C103.402 6.25781 104.562 5.71484 105.891 5.71484C107 5.71484 107.961 6.17188 108.773 7.08594C109.594 7.99219 110.035 9.33984 110.098 11.1289ZM107.215 10.3438C107.215 9.08594 107.145 8.22266 107.004 7.75391C106.871 7.28516 106.66 6.92969 106.371 6.6875C106.207 6.54688 105.988 6.47656 105.715 6.47656C105.309 6.47656 104.977 6.67578 104.719 7.07422C104.258 7.76953 104.027 8.72266 104.027 9.93359V10.3438H107.215ZM122.133 1.10938V13.7188C122.133 14.5703 122.156 15.0742 122.203 15.2305C122.266 15.4883 122.383 15.6797 122.555 15.8047C122.734 15.9297 123.043 16.0078 123.48 16.0391V16.4258L118.852 17.3281V15.5938C118.297 16.2656 117.801 16.7227 117.363 16.9648C116.934 17.207 116.445 17.3281 115.898 17.3281C114.5 17.3281 113.395 16.7031 112.582 15.4531C111.926 14.4375 111.598 13.1914 111.598 11.7148C111.598 10.5352 111.801 9.48047 112.207 8.55078C112.613 7.61328 113.168 6.90625 113.871 6.42969C114.582 5.95312 115.344 5.71484 116.156 5.71484C116.68 5.71484 117.145 5.81641 117.551 6.01953C117.957 6.22266 118.391 6.57812 118.852 7.08594V3.78125C118.852 2.94531 118.816 2.44141 118.746 2.26953C118.652 2.04297 118.512 1.875 118.324 1.76562C118.137 1.65625 117.785 1.60156 117.27 1.60156V1.10938H122.133ZM118.852 8.53906C118.273 7.42969 117.566 6.875 116.73 6.875C116.441 6.875 116.203 6.95312 116.016 7.10938C115.727 7.35156 115.488 7.77734 115.301 8.38672C115.121 8.99609 115.031 9.92969 115.031 11.1875C115.031 12.5703 115.133 13.5938 115.336 14.2578C115.539 14.9219 115.816 15.4023 116.168 15.6992C116.348 15.8477 116.594 15.9219 116.906 15.9219C117.594 15.9219 118.242 15.3828 118.852 14.3047V8.53906ZM144.727 1.10938V5.41016H144.305C144.055 4.41797 143.777 3.70703 143.473 3.27734C143.168 2.83984 142.75 2.49219 142.219 2.23438C141.922 2.09375 141.402 2.02344 140.66 2.02344H139.477V14.2812C139.477 15.0938 139.52 15.6016 139.605 15.8047C139.699 16.0078 139.875 16.1875 140.133 16.3438C140.398 16.4922 140.758 16.5664 141.211 16.5664H141.738V17H133.418V16.5664H133.945C134.406 16.5664 134.777 16.4844 135.059 16.3203C135.262 16.2109 135.422 16.0234 135.539 15.7578C135.625 15.5703 135.668 15.0781 135.668 14.2812V2.02344H134.52C133.449 2.02344 132.672 2.25 132.188 2.70312C131.508 3.33594 131.078 4.23828 130.898 5.41016H130.453V1.10938H144.727ZM150.246 15.3828C148.91 16.5625 147.711 17.1523 146.648 17.1523C146.023 17.1523 145.504 16.9492 145.09 16.543C144.676 16.1289 144.469 15.6133 144.469 14.9961C144.469 14.1602 144.828 13.4102 145.547 12.7461C146.266 12.0742 147.832 11.1836 150.246 10.0742V8.97266C150.246 8.14453 150.199 7.625 150.105 7.41406C150.02 7.19531 149.852 7.00781 149.602 6.85156C149.352 6.6875 149.07 6.60547 148.758 6.60547C148.25 6.60547 147.832 6.71875 147.504 6.94531C147.301 7.08594 147.199 7.25 147.199 7.4375C147.199 7.60156 147.309 7.80469 147.527 8.04688C147.824 8.38281 147.973 8.70703 147.973 9.01953C147.973 9.40234 147.828 9.73047 147.539 10.0039C147.258 10.2695 146.887 10.4023 146.426 10.4023C145.934 10.4023 145.52 10.2539 145.184 9.95703C144.855 9.66016 144.691 9.3125 144.691 8.91406C144.691 8.35156 144.914 7.81641 145.359 7.30859C145.805 6.79297 146.426 6.39844 147.223 6.125C148.02 5.85156 148.848 5.71484 149.707 5.71484C150.746 5.71484 151.566 5.9375 152.168 6.38281C152.777 6.82031 153.172 7.29688 153.352 7.8125C153.461 8.14062 153.516 8.89453 153.516 10.0742V14.3281C153.516 14.8281 153.535 15.1445 153.574 15.2773C153.613 15.4023 153.672 15.4961 153.75 15.5586C153.828 15.6211 153.918 15.6523 154.02 15.6523C154.223 15.6523 154.43 15.5078 154.641 15.2188L154.992 15.5C154.602 16.0781 154.195 16.5 153.773 16.7656C153.359 17.0234 152.887 17.1523 152.355 17.1523C151.73 17.1523 151.242 17.0078 150.891 16.7188C150.539 16.4219 150.324 15.9766 150.246 15.3828ZM150.246 14.5273V10.8594C149.301 11.4141 148.598 12.0078 148.137 12.6406C147.832 13.0625 147.68 13.4883 147.68 13.918C147.68 14.2773 147.809 14.5938 148.066 14.8672C148.262 15.0781 148.535 15.1836 148.887 15.1836C149.277 15.1836 149.73 14.9648 150.246 14.5273ZM160.676 1.10938V7.44922C161.277 6.81641 161.828 6.37109 162.328 6.11328C162.828 5.84766 163.348 5.71484 163.887 5.71484C164.574 5.71484 165.16 5.91016 165.645 6.30078C166.137 6.69141 166.461 7.15234 166.617 7.68359C166.781 8.20703 166.863 9.09375 166.863 10.3438V14.6211C166.863 15.457 166.941 15.9805 167.098 16.1914C167.254 16.3945 167.57 16.5234 168.047 16.5781V17H162.492V16.5781C162.883 16.5234 163.176 16.3672 163.371 16.1094C163.512 15.9062 163.582 15.4102 163.582 14.6211V9.73438C163.582 8.82812 163.547 8.26172 163.477 8.03516C163.406 7.80078 163.285 7.62109 163.113 7.49609C162.949 7.36328 162.762 7.29688 162.551 7.29688C162.238 7.29688 161.934 7.40625 161.637 7.625C161.34 7.83594 161.02 8.21094 160.676 8.75V14.6211C160.676 15.4023 160.734 15.8906 160.852 16.0859C161 16.3516 161.305 16.5156 161.766 16.5781V17H156.211V16.5781C156.672 16.5312 157 16.3828 157.195 16.1328C157.328 15.9609 157.395 15.457 157.395 14.6211V3.48828C157.395 2.66016 157.316 2.14453 157.16 1.94141C157.012 1.73828 156.695 1.60547 156.211 1.54297V1.10938H160.676ZM178.84 11.1289H172.828C172.898 12.582 173.285 13.7305 173.988 14.5742C174.527 15.2227 175.176 15.5469 175.934 15.5469C176.402 15.5469 176.828 15.418 177.211 15.1602C177.594 14.8945 178.004 14.4219 178.441 13.7422L178.84 14C178.246 15.2109 177.59 16.0703 176.871 16.5781C176.152 17.0781 175.32 17.3281 174.375 17.3281C172.75 17.3281 171.52 16.7031 170.684 15.4531C170.012 14.4453 169.676 13.1953 169.676 11.7031C169.676 9.875 170.168 8.42188 171.152 7.34375C172.145 6.25781 173.305 5.71484 174.633 5.71484C175.742 5.71484 176.703 6.17188 177.516 7.08594C178.336 7.99219 178.777 9.33984 178.84 11.1289ZM175.957 10.3438C175.957 9.08594 175.887 8.22266 175.746 7.75391C175.613 7.28516 175.402 6.92969 175.113 6.6875C174.949 6.54688 174.73 6.47656 174.457 6.47656C174.051 6.47656 173.719 6.67578 173.461 7.07422C173 7.76953 172.77 8.72266 172.77 9.93359V10.3438H175.957ZM184.77 6.04297V8.52734C185.496 7.39453 186.133 6.64453 186.68 6.27734C187.227 5.90234 187.754 5.71484 188.262 5.71484C188.699 5.71484 189.047 5.85156 189.305 6.125C189.57 6.39062 189.703 6.76953 189.703 7.26172C189.703 7.78516 189.574 8.19141 189.316 8.48047C189.066 8.76953 188.762 8.91406 188.402 8.91406C187.988 8.91406 187.629 8.78125 187.324 8.51562C187.02 8.25 186.84 8.10156 186.785 8.07031C186.707 8.02344 186.617 8 186.516 8C186.289 8 186.074 8.08594 185.871 8.25781C185.551 8.52344 185.309 8.90234 185.145 9.39453C184.895 10.1523 184.77 10.9883 184.77 11.9023V14.4219L184.781 15.0781C184.781 15.5234 184.809 15.8086 184.863 15.9336C184.957 16.1445 185.094 16.3008 185.273 16.4023C185.461 16.4961 185.773 16.5547 186.211 16.5781V17H180.293V16.5781C180.77 16.5391 181.09 16.4102 181.254 16.1914C181.426 15.9648 181.512 15.375 181.512 14.4219V8.36328C181.512 7.73828 181.48 7.33984 181.418 7.16797C181.34 6.94922 181.227 6.78906 181.078 6.6875C180.93 6.58594 180.668 6.51562 180.293 6.47656V6.04297H184.77ZM206.906 0.746094L207.035 6.04297H206.555C206.328 4.71484 205.77 3.64844 204.879 2.84375C203.996 2.03125 203.039 1.625 202.008 1.625C201.211 1.625 200.578 1.83984 200.109 2.26953C199.648 2.69141 199.418 3.17969 199.418 3.73438C199.418 4.08594 199.5 4.39844 199.664 4.67188C199.891 5.03906 200.254 5.40234 200.754 5.76172C201.121 6.01953 201.969 6.47656 203.297 7.13281C205.156 8.04688 206.41 8.91016 207.059 9.72266C207.699 10.5352 208.02 11.4648 208.02 12.5117C208.02 13.8398 207.5 14.9844 206.461 15.9453C205.43 16.8984 204.117 17.375 202.523 17.375C202.023 17.375 201.551 17.3242 201.105 17.2227C200.66 17.1211 200.102 16.9297 199.43 16.6484C199.055 16.4922 198.746 16.4141 198.504 16.4141C198.301 16.4141 198.086 16.4922 197.859 16.6484C197.633 16.8047 197.449 17.043 197.309 17.3633H196.875V11.3633H197.309C197.652 13.0508 198.312 14.3398 199.289 15.2305C200.273 16.1133 201.332 16.5547 202.465 16.5547C203.34 16.5547 204.035 16.3164 204.551 15.8398C205.074 15.3633 205.336 14.8086 205.336 14.1758C205.336 13.8008 205.234 13.4375 205.031 13.0859C204.836 12.7344 204.535 12.4023 204.129 12.0898C203.723 11.7695 203.004 11.3555 201.973 10.8477C200.527 10.1367 199.488 9.53125 198.855 9.03125C198.223 8.53125 197.734 7.97266 197.391 7.35547C197.055 6.73828 196.887 6.05859 196.887 5.31641C196.887 4.05078 197.352 2.97266 198.281 2.08203C199.211 1.19141 200.383 0.746094 201.797 0.746094C202.312 0.746094 202.812 0.808594 203.297 0.933594C203.664 1.02734 204.109 1.20312 204.633 1.46094C205.164 1.71094 205.535 1.83594 205.746 1.83594C205.949 1.83594 206.109 1.77344 206.227 1.64844C206.344 1.52344 206.453 1.22266 206.555 0.746094H206.906ZM214.277 1.10938V7.44922C214.879 6.81641 215.43 6.37109 215.93 6.11328C216.43 5.84766 216.949 5.71484 217.488 5.71484C218.176 5.71484 218.762 5.91016 219.246 6.30078C219.738 6.69141 220.062 7.15234 220.219 7.68359C220.383 8.20703 220.465 9.09375 220.465 10.3438V14.6211C220.465 15.457 220.543 15.9805 220.699 16.1914C220.855 16.3945 221.172 16.5234 221.648 16.5781V17H216.094V16.5781C216.484 16.5234 216.777 16.3672 216.973 16.1094C217.113 15.9062 217.184 15.4102 217.184 14.6211V9.73438C217.184 8.82812 217.148 8.26172 217.078 8.03516C217.008 7.80078 216.887 7.62109 216.715 7.49609C216.551 7.36328 216.363 7.29688 216.152 7.29688C215.84 7.29688 215.535 7.40625 215.238 7.625C214.941 7.83594 214.621 8.21094 214.277 8.75V14.6211C214.277 15.4023 214.336 15.8906 214.453 16.0859C214.602 16.3516 214.906 16.5156 215.367 16.5781V17H209.812V16.5781C210.273 16.5312 210.602 16.3828 210.797 16.1328C210.93 15.9609 210.996 15.457 210.996 14.6211V3.48828C210.996 2.66016 210.918 2.14453 210.762 1.94141C210.613 1.73828 210.297 1.60547 209.812 1.54297V1.10938H214.277ZM229.207 15.3828C227.871 16.5625 226.672 17.1523 225.609 17.1523C224.984 17.1523 224.465 16.9492 224.051 16.543C223.637 16.1289 223.43 15.6133 223.43 14.9961C223.43 14.1602 223.789 13.4102 224.508 12.7461C225.227 12.0742 226.793 11.1836 229.207 10.0742V8.97266C229.207 8.14453 229.16 7.625 229.066 7.41406C228.98 7.19531 228.812 7.00781 228.562 6.85156C228.312 6.6875 228.031 6.60547 227.719 6.60547C227.211 6.60547 226.793 6.71875 226.465 6.94531C226.262 7.08594 226.16 7.25 226.16 7.4375C226.16 7.60156 226.27 7.80469 226.488 8.04688C226.785 8.38281 226.934 8.70703 226.934 9.01953C226.934 9.40234 226.789 9.73047 226.5 10.0039C226.219 10.2695 225.848 10.4023 225.387 10.4023C224.895 10.4023 224.48 10.2539 224.145 9.95703C223.816 9.66016 223.652 9.3125 223.652 8.91406C223.652 8.35156 223.875 7.81641 224.32 7.30859C224.766 6.79297 225.387 6.39844 226.184 6.125C226.98 5.85156 227.809 5.71484 228.668 5.71484C229.707 5.71484 230.527 5.9375 231.129 6.38281C231.738 6.82031 232.133 7.29688 232.312 7.8125C232.422 8.14062 232.477 8.89453 232.477 10.0742V14.3281C232.477 14.8281 232.496 15.1445 232.535 15.2773C232.574 15.4023 232.633 15.4961 232.711 15.5586C232.789 15.6211 232.879 15.6523 232.98 15.6523C233.184 15.6523 233.391 15.5078 233.602 15.2188L233.953 15.5C233.562 16.0781 233.156 16.5 232.734 16.7656C232.32 17.0234 231.848 17.1523 231.316 17.1523C230.691 17.1523 230.203 17.0078 229.852 16.7188C229.5 16.4219 229.285 15.9766 229.207 15.3828ZM229.207 14.5273V10.8594C228.262 11.4141 227.559 12.0078 227.098 12.6406C226.793 13.0625 226.641 13.4883 226.641 13.918C226.641 14.2773 226.77 14.5938 227.027 14.8672C227.223 15.0781 227.496 15.1836 227.848 15.1836C228.238 15.1836 228.691 14.9648 229.207 14.5273ZM237.797 0.734375C238.305 0.734375 238.734 0.914062 239.086 1.27344C239.438 1.625 239.613 2.05078 239.613 2.55078C239.613 3.05078 239.434 3.47656 239.074 3.82812C238.723 4.17969 238.297 4.35547 237.797 4.35547C237.297 4.35547 236.871 4.17969 236.52 3.82812C236.168 3.47656 235.992 3.05078 235.992 2.55078C235.992 2.05078 236.168 1.625 236.52 1.27344C236.871 0.914062 237.297 0.734375 237.797 0.734375ZM239.438 6.04297V14.7266C239.438 15.5 239.527 15.9961 239.707 16.2148C239.887 16.4258 240.238 16.5469 240.762 16.5781V17H234.844V16.5781C235.328 16.5625 235.688 16.4219 235.922 16.1562C236.078 15.9766 236.156 15.5 236.156 14.7266V8.32812C236.156 7.55469 236.066 7.0625 235.887 6.85156C235.707 6.63281 235.359 6.50781 234.844 6.47656V6.04297H239.438ZM246.293 1.10938V11.5625L248.836 9.06641C249.359 8.55859 249.684 8.19141 249.809 7.96484C249.941 7.73828 250.008 7.51953 250.008 7.30859C250.008 7.09766 249.922 6.92188 249.75 6.78125C249.578 6.64062 249.242 6.53906 248.742 6.47656V6.04297H253.652V6.47656C253.184 6.5 252.773 6.61328 252.422 6.81641C252.07 7.01172 251.383 7.60938 250.359 8.60938L249.164 9.78125L251.742 13.5547C252.781 15.0859 253.398 15.9453 253.594 16.1328C253.859 16.3984 254.195 16.5469 254.602 16.5781V17H248.941V16.5781C249.191 16.5781 249.371 16.5312 249.48 16.4375C249.598 16.3438 249.656 16.2422 249.656 16.1328C249.656 15.9531 249.492 15.6211 249.164 15.1367L246.996 11.9609L246.293 12.6523V14.6211C246.293 15.457 246.371 15.9805 246.527 16.1914C246.684 16.3945 247.004 16.5234 247.488 16.5781V17H241.828V16.5781C242.289 16.5312 242.617 16.3828 242.812 16.1328C242.945 15.9609 243.012 15.457 243.012 14.6211V3.48828C243.012 2.66016 242.934 2.14453 242.777 1.94141C242.629 1.73828 242.312 1.60547 241.828 1.54297V1.10938H246.293ZM259.676 1.10938V7.44922C260.277 6.81641 260.828 6.37109 261.328 6.11328C261.828 5.84766 262.348 5.71484 262.887 5.71484C263.574 5.71484 264.16 5.91016 264.645 6.30078C265.137 6.69141 265.461 7.15234 265.617 7.68359C265.781 8.20703 265.863 9.09375 265.863 10.3438V14.6211C265.863 15.457 265.941 15.9805 266.098 16.1914C266.254 16.3945 266.57 16.5234 267.047 16.5781V17H261.492V16.5781C261.883 16.5234 262.176 16.3672 262.371 16.1094C262.512 15.9062 262.582 15.4102 262.582 14.6211V9.73438C262.582 8.82812 262.547 8.26172 262.477 8.03516C262.406 7.80078 262.285 7.62109 262.113 7.49609C261.949 7.36328 261.762 7.29688 261.551 7.29688C261.238 7.29688 260.934 7.40625 260.637 7.625C260.34 7.83594 260.02 8.21094 259.676 8.75V14.6211C259.676 15.4023 259.734 15.8906 259.852 16.0859C260 16.3516 260.305 16.5156 260.766 16.5781V17H255.211V16.5781C255.672 16.5312 256 16.3828 256.195 16.1328C256.328 15.9609 256.395 15.457 256.395 14.6211V3.48828C256.395 2.66016 256.316 2.14453 256.16 1.94141C256.012 1.73828 255.695 1.60547 255.211 1.54297V1.10938H259.676ZM280.348 2.02344V8.55078H280.805C281.508 8.55078 282.082 8.44531 282.527 8.23438C282.973 8.02344 283.348 7.66797 283.652 7.16797C283.965 6.66797 284.168 5.99219 284.262 5.14062H284.672V13.1211H284.262C284.113 11.6133 283.707 10.6211 283.043 10.1445C282.387 9.66016 281.641 9.41797 280.805 9.41797H280.348V14.2812C280.348 15.0938 280.391 15.6016 280.477 15.8047C280.57 16.0078 280.746 16.1875 281.004 16.3438C281.27 16.4922 281.625 16.5664 282.07 16.5664H282.598V17H274.289V16.5664H274.816C275.277 16.5664 275.648 16.4844 275.93 16.3203C276.133 16.2109 276.289 16.0234 276.398 15.7578C276.484 15.5703 276.527 15.0781 276.527 14.2812V3.82812C276.527 3.01562 276.484 2.50781 276.398 2.30469C276.312 2.10156 276.137 1.92578 275.871 1.77734C275.613 1.62109 275.262 1.54297 274.816 1.54297H274.289V1.10938H287.695V5.66797H287.215C287.105 4.59766 286.824 3.80469 286.371 3.28906C285.926 2.77344 285.277 2.41016 284.426 2.19922C283.957 2.08203 283.09 2.02344 281.824 2.02344H280.348ZM309.551 0.746094V6.25391H309.094C308.75 4.81641 308.109 3.71484 307.172 2.94922C306.234 2.18359 305.172 1.80078 303.984 1.80078C302.992 1.80078 302.082 2.08594 301.254 2.65625C300.426 3.22656 299.82 3.97266 299.438 4.89453C298.945 6.07422 298.699 7.38672 298.699 8.83203C298.699 10.2539 298.879 11.5508 299.238 12.7227C299.598 13.8867 300.16 14.7695 300.926 15.3711C301.691 15.9648 302.684 16.2617 303.902 16.2617C304.902 16.2617 305.816 16.043 306.645 15.6055C307.48 15.168 308.359 14.4141 309.281 13.3438V14.7148C308.391 15.6445 307.461 16.3203 306.492 16.7422C305.531 17.1562 304.406 17.3633 303.117 17.3633C301.422 17.3633 299.914 17.0234 298.594 16.3438C297.281 15.6641 296.266 14.6875 295.547 13.4141C294.836 12.1406 294.48 10.7852 294.48 9.34766C294.48 7.83203 294.875 6.39453 295.664 5.03516C296.461 3.67578 297.531 2.62109 298.875 1.87109C300.227 1.12109 301.66 0.746094 303.176 0.746094C304.293 0.746094 305.473 0.988281 306.715 1.47266C307.434 1.75391 307.891 1.89453 308.086 1.89453C308.336 1.89453 308.551 1.80469 308.73 1.625C308.918 1.4375 309.039 1.14453 309.094 0.746094H309.551ZM325.523 12.4766H319.91L319.242 14.0234C319.023 14.5391 318.914 14.9648 318.914 15.3008C318.914 15.7461 319.094 16.0742 319.453 16.2852C319.664 16.4102 320.184 16.5039 321.012 16.5664V17H315.727V16.5664C316.297 16.4805 316.766 16.2461 317.133 15.8633C317.5 15.4727 317.953 14.6719 318.492 13.4609L324.176 0.78125H324.398L330.129 13.8125C330.676 15.0469 331.125 15.8242 331.477 16.1445C331.742 16.3867 332.117 16.5273 332.602 16.5664V17H324.914V16.5664H325.23C325.848 16.5664 326.281 16.4805 326.531 16.3086C326.703 16.1836 326.789 16.0039 326.789 15.7695C326.789 15.6289 326.766 15.4844 326.719 15.3359C326.703 15.2656 326.586 14.9727 326.367 14.457L325.523 12.4766ZM325.125 11.6094L322.758 6.13672L320.32 11.6094H325.125Z" fill="#023262" fill-opacity="0.99"/>
</svg>
